HIERARCHY
ROOT Hips
{
	OFFSET 0.000000 0.000000 0.000000
	CHANNELS 6 Xposition Yposition Zposition Zrotation Yrotation Xrotation 
	JOINT LHipJoint
	{
		OFFSET 0.000000 0.000000 0.000000
		CHANNELS 3 Zrotation Yrotation Xrotation
		JOINT LeftUpLeg
		{
			OFFSET 1.363060 -1.794630 0.839290
			CHANNELS 3 Zrotation Yrotation Xrotation
			JOINT LeftLeg
			{
				OFFSET 2.448110 -6.726130 0.000000
				CHANNELS 3 Zrotation Yrotation Xrotation
				JOINT LeftFoot
				{
					OFFSET 2.562200 -7.039590 0.000000
					CHANNELS 3 Zrotation Yrotation Xrotation
					JOINT LeftToeBase
					{
						OFFSET 0.157640 -0.433110 2.322550
						CHANNELS 3 Zrotation Yrotation Xrotation
						End Site
						{
							OFFSET 0.000000 0.000000 0.000000
						}
					}
				}
			}
		}
	}
	JOINT RHipJoint
	{
		OFFSET 0.000000 0.000000 0.000000
		CHANNELS 3 Zrotation Yrotation Xrotation
		JOINT RightUpLeg
		{
			OFFSET -1.305520 -1.794630 0.839290
			CHANNELS 3 Zrotation Yrotation Xrotation
			JOINT RightLeg
			{
				OFFSET -2.542530 -6.985550 0.000000
				CHANNELS 3 Zrotation Yrotation Xrotation
				JOINT RightFoot
				{
					OFFSET -2.568260 -7.056230 0.000000
					CHANNELS 3 Zrotation Yrotation Xrotation
					JOINT RightToeBase
					{
						OFFSET -0.164730 -0.452590 2.363150
						CHANNELS 3 Zrotation Yrotation Xrotation
						End Site
						{
							OFFSET 0.000000 0.000000 0.000000
						}
					}
				}
			}
		}
	}
	JOINT LowerBack
	{
		OFFSET 0.000000 0.000000 0.000000
		CHANNELS 3 Zrotation Yrotation Xrotation
		JOINT Spine
		{
			OFFSET 0.028270 2.035590 -0.193380
			CHANNELS 3 Zrotation Yrotation Xrotation
			JOINT Spine1
			{
				OFFSET 0.056720 2.048850 -0.042750
				CHANNELS 3 Zrotation Yrotation Xrotation
				JOINT Neck
				{
					OFFSET 0.000000 0.000000 0.000000
					CHANNELS 3 Zrotation Yrotation Xrotation
					JOINT Neck1
					{
						OFFSET -0.054170 1.746240 0.172020
						CHANNELS 3 Zrotation Yrotation Xrotation
						JOINT Head
						{
							OFFSET 0.104070 1.761360 -0.123970
							CHANNELS 3 Zrotation Yrotation Xrotation
							End Site
							{
								OFFSET 0.000000 0.000000 0.000000
							}
						}
					}
				}
				JOINT LeftShoulder
				{
					OFFSET 0.000000 0.000000 0.000000
					CHANNELS 3 Zrotation Yrotation Xrotation
					JOINT LeftArm
					{
						OFFSET 3.362410 1.200890 -0.311210
						CHANNELS 3 Zrotation Yrotation Xrotation
						JOINT LeftForeArm
						{
							OFFSET 4.983000 -0.000000 -0.000000
							CHANNELS 3 Zrotation Yrotation Xrotation
							JOINT LeftHand
							{
								OFFSET 3.483560 -0.000000 -0.000000
								CHANNELS 3 Zrotation Yrotation Xrotation
								JOINT LeftFingerBase
								{
									OFFSET 0.000000 0.000000 0.000000
									CHANNELS 3 Zrotation Yrotation Xrotation
									JOINT LeftHandIndex1
									{
										OFFSET 0.715260 -0.000000 -0.000000
										CHANNELS 3 Zrotation Yrotation Xrotation
										End Site
										{
											OFFSET 0.000000 0.000000 0.000000
										}
									}
								}
								JOINT LThumb
								{
									OFFSET 0.000000 0.000000 0.000000
									CHANNELS 3 Zrotation Yrotation Xrotation
									End Site
									{
										OFFSET 0.000000 0.000000 0.000000
									}
								}
							}
						}
					}
				}
				JOINT RightShoulder
				{
					OFFSET 0.000000 0.000000 0.000000
					CHANNELS 3 Zrotation Yrotation Xrotation
					JOINT RightArm
					{
						OFFSET -3.136600 1.374050 -0.404650
						CHANNELS 3 Zrotation Yrotation Xrotation
						JOINT RightForeArm
						{
							OFFSET -5.241900 -0.000000 -0.000000
							CHANNELS 3 Zrotation Yrotation Xrotation
							JOINT RightHand
							{
								OFFSET -3.444170 -0.000000 -0.000000
								CHANNELS 3 Zrotation Yrotation Xrotation
								JOINT RightFingerBase
								{
									OFFSET 0.000000 0.000000 0.000000
									CHANNELS 3 Zrotation Yrotation Xrotation
									JOINT RightHandIndex1
									{
										OFFSET -0.622530 -0.000000 -0.000000
										CHANNELS 3 Zrotation Yrotation Xrotation
										End Site
										{
											OFFSET 0.000000 0.000000 0.000000
										}
									}
								}
								JOINT RThumb
								{
									OFFSET 0.000000 0.000000 0.000000
									CHANNELS 3 Zrotation Yrotation Xrotation
									End Site
									{
										OFFSET 0.000000 0.000000 0.000000
									}
								}
							}
						}
					}
				}
			}
		}
	}
}
MOTION
Frames: 5
Frame Time: 0.008333
28.006474 17.746469 6.428036 -36.710311 -86.655146 46.675440 -1.809630 -1.198809 -0.290924 -14.102131 -2.903481 -0.958419 2.588918 11.746096 33.041368 1.311362 1.094319 20.798287 1.705400 -8.223300 -23.394500 0.877292 1.521676 -2.182681 19.066175 12.042397 -25.243733 -0.383052 -7.047258 17.618156 1.876716 -14.331283 8.133297 -1.527800 -7.804200 22.120900 0.559074 -2.213403 2.461899 2.024141 -2.607874 -5.084259 9.273824 -1.585763 -1.277404 -4.229633 -2.579660 -12.543319 5.289991 -3.165547 6.896897 2.186400 -1.478700 6.426900 7.747370 2.757154 0.562001 -100.737907 3.915295 11.320832 5.192751 -23.848422 -1.634729 1.471571 1.311594 50.847799 7.809331 13.205380 1.547100 -7.125000 0.000000 0.000000 -16.887400 40.703100 1.849300 -3.196796 -3.533672 -1.748478 83.062330 -4.129642 -10.726817 -4.572225 12.013580 -0.317492 -0.273443 0.740857 35.845817 -14.719376 -23.807924 5.896800 7.125000 0.000000 0.000000 16.154500 -54.249300 -3.746400 
27.850947 17.769217 6.407493 -40.357574 -86.071944 50.291233 -1.749746 -1.214095 -0.369578 -13.141117 -3.113788 -1.933793 2.977224 12.287287 34.845710 1.592142 1.215563 23.495893 1.265400 -7.130300 -20.102100 0.891434 1.519221 -2.174195 19.907315 12.048995 -24.571087 -0.379408 -7.047137 17.636304 1.922944 -14.294458 7.437806 -1.530100 -7.809800 22.137800 1.150755 -2.267612 2.019244 2.079892 -2.707673 -4.945768 9.122611 -1.648756 -0.686258 -4.249876 -2.687480 -12.524247 5.353994 -3.316403 6.996008 2.206100 -1.543900 6.439700 7.865414 2.869008 0.537111 -100.455021 3.012527 7.172956 3.788518 -21.791613 -1.388935 1.458328 1.191851 55.100607 6.670134 12.953718 1.314300 -7.125000 0.000000 0.000000 -17.765300 40.458900 2.063600 -3.245205 -3.575261 -1.722044 82.897982 -3.907295 -9.946766 -4.706007 12.327882 -0.355535 -0.291793 0.735406 34.362394 -14.626888 -23.801128 5.855300 7.125000 0.000000 0.000000 16.244300 -54.226700 -3.759000 
27.695019 17.790262 6.389655 -41.126531 -85.491235 50.971999 -1.714404 -1.226357 -0.423376 -12.324891 -3.410675 -2.884538 3.386054 12.808945 36.630691 1.859592 1.371712 25.857699 0.903000 -6.055800 -16.946300 0.889345 1.506632 -2.132371 20.652268 11.691960 -23.989507 -0.373872 -7.031864 17.630702 1.920311 -14.068642 6.901688 -1.493400 -7.719700 21.866000 1.585567 -2.352400 2.034006 2.153894 -2.836052 -4.975857 9.111950 -1.701718 -0.811023 -4.331727 -2.786848 -12.184991 5.363804 -3.462903 7.229879 2.214900 -1.622700 6.473200 7.959056 2.889683 0.506478 -100.283986 2.623246 2.509707 2.685078 -19.959750 -1.215020 1.453839 1.231518 58.978457 4.862335 13.357353 1.031200 -7.125000 0.000000 0.000000 -19.273400 40.700100 2.133900 -3.256955 -3.576688 -1.735803 82.552362 -4.399262 -7.991173 -5.018003 12.984258 -0.433886 -0.324259 0.724833 31.804492 -14.392509 -24.086383 5.816500 7.125000 0.000000 0.000000 16.628100 -54.460000 -3.947400 
27.552819 17.806295 6.372719 -42.718163 -84.987426 52.391529 -1.666371 -1.237630 -0.490624 -11.526890 -3.523271 -3.891881 3.837191 13.326432 38.428813 2.017020 1.852769 27.495223 0.572500 -4.845500 -13.468600 0.890483 1.493992 -2.095237 21.392583 11.465818 -23.288247 -0.363722 -7.001481 17.575462 1.930951 -13.927436 6.370779 -1.478700 -7.683300 21.756300 2.016470 -2.377607 2.167883 2.217579 -2.879714 -4.963134 9.072437 -1.715959 -0.873199 -4.424958 -2.923507 -11.957058 5.410791 -3.653250 7.435763 2.234000 -1.718100 6.522000 8.027689 2.924455 0.469285 -99.927810 2.089373 -1.877817 1.757192 -18.190443 -1.069951 1.494788 1.163866 62.746818 3.973173 13.574945 0.879600 -7.125000 0.000000 0.000000 -20.059200 40.849700 2.151500 -3.268889 -3.581371 -1.739673 82.274403 -4.563921 -6.285397 -5.365348 13.679375 -0.521657 -0.354623 0.712706 29.594955 -14.154388 -24.507429 5.802100 7.125000 0.000000 0.000000 17.092200 -54.819200 -4.214000 
27.406210 17.823632 6.355984 -43.817788 -84.497798 53.324081 -1.616398 -1.251155 -0.560886 -10.776118 -3.687989 -4.845982 4.297339 13.825070 40.230970 2.183060 2.051224 28.882487 0.376400 -3.940400 -10.909100 0.885500 1.482133 -2.059957 22.126702 11.163433 -22.606587 -0.353338 -6.969440 17.517113 1.926624 -13.732138 5.874977 -1.455000 -7.624300 21.578500 2.430518 -2.413819 2.228564 2.276971 -2.938827 -4.939678 9.013687 -1.739437 -0.872975 -4.522187 -3.050857 -11.706061 5.474658 -3.832479 7.630436 2.262300 -1.807300 6.557700 8.090563 2.969976 0.427799 -99.576466 1.515813 -7.018812 0.945272 -16.347496 -0.941019 1.534695 1.088529 67.190580 2.972458 13.768363 0.700200 -7.125000 0.000000 0.000000 -20.922300 40.971200 2.187400 -3.282866 -3.590519 -1.739229 81.998851 -4.762686 -4.728516 -5.711280 14.366894 -0.614956 -0.380503 0.701261 27.531792 -13.970436 -24.826466 5.787900 7.125000 0.000000 0.000000 17.452600 -55.091100 -4.423900 
